:SAMPLES-PER-SECOND 30
:FRAME-RANGE 1-1770
:FULLY-SPECIFIED
:DEGREES
222
root  14.9233 38.0168 39.1097 -179.355 25.0352 -178.721
RightUpLeg  13.862 -18.0551 -7.44615
RightLeg  18.3294 -2.67799 -0.87029
RightFoot  -20.6367 1.38837 18.66
RightToes  6.35937e-011 1.2921e-014 -6.02303e-014
Spine  7.34878 1.72286 3.68089
Spine1  -0.948108 2.49434 -3.22772
HEad  1.25626 1.42196 -1.45497
LeftShoulder1  1.90818 -2.47089 -25.7832
LeftArm  21.5192 -48.8163 -47.7526
LeftForeArm  11.1777 -28.2738 -5.50761
LeftHand  -0.248058 -3.17664 3.53762
RightShoulder  14.0769 29.2095 36.6628
RightArm  -4.44723 26.0295 14.5982
RightForeArm  19.4545 35.8243 6.93918
RightHand  -0.436682 3.88775 -5.72417
LeftUpLeg  -25.9043 9.305 -3.31789
LeftLeg  9.59465 13.2935 -1.20186
LeftFoot  7.36412 -0.405207 2.18776
LeftToes  3.18074e-010 1.39432e-010 -7.71186e-011
223
root  15.6116 37.5984 37.7507 179.027 24.2723 179.536
RightUpLeg  12.0358 -16.0525 -9.84101
RightLeg  29.3049 -1.28044 -1.01259
RightFoot  -19.9997 1.82662 25.5403
RightToes  6.35937e-011 1.2921e-014 -6.02303e-014
Spine  7.9926 1.51894 1.21881
Spine1  -0.780433 2.2145 -3.86328
HEad  1.51274 1.21365 -0.31702
LeftShoulder1  1.85386 -2.37292 -25.3741
LeftArm  20.8495 -49.1463 -47.7946
LeftForeArm  11.2423 -28.4858 -5.55378
LeftHand  -0.247619 -3.1239 3.54639
RightShoulder  14.5547 29.3455 37.8941
RightArm  -4.00633 25.9009 14.8372
RightForeArm  20.2591 37.2831 7.29733
RightHand  -0.440073 3.84811 -5.78873
LeftUpLeg  -28.5218 13.5501 -8.27168
LeftLeg  19.4141 6.31814 2.79717
LeftFoot  5.07492 -0.722763 4.79379
LeftToes  3.18074e-010 1.39432e-010 -7.71186e-011
224
root  16.2231 37.1967 36.5135 177.899 23.6113 178.124
RightUpLeg  6.78969 -14.7786 -12.2895
RightLeg  43.9379 -0.345597 -0.659539
RightFoot  -13.15 0.40755 30.8345
RightToes  6.35937e-011 1.2921e-014 -6.02303e-014
Spine  8.64066 1.87697 -1.51186
Spine1  -0.165677 2.20099 -3.50448
HEad  0.988891 0.47369 0.0300554
LeftShoulder1  1.94794 -2.64366 -25.5236
LeftArm  21.6947 -49.9113 -48.7859
LeftForeArm  10.603 -28.0246 -5.48095
LeftHand  -0.245925 -3.02237 3.62796
RightShoulder  14.4182 29.4137 37.4023
RightArm  -3.18131 25.4722 15.3672
RightForeArm  20.4602 38.4267 7.61589
RightHand  -0.445903 3.64392 -5.98107
LeftUpLeg  -29.3794 12.4087 -9.04228
LeftLeg  26.7122 6.67641 3.98276
LeftFoot  1.52194 -0.764526 6.69206
LeftToes  3.18074e-010 1.39432e-010 -7.71186e-011
225
root  16.8044 37.2185 35.3124 177.251 23.9442 177.401
RightUpLeg  -1.977 -12.7444 -12.4845
RightLeg  58.4425 -2.29101 -4.49229
RightFoot  3.80017 -2.33981 17.6734
RightToes  6.35937e-011 1.2921e-014 -6.02303e-014
Spine  9.31621 2.11688 -2.32039
Spine1  0.0743454 2.5837 -4.35938
HEad  0.47901 0.356073 0.0851278
LeftShoulder1  1.96366 -2.72331 -25.3648
LeftArm  22.7819 -50.768 -49.6018
LeftForeArm  9.90132 -27.4124 -5.37733
LeftHand  -0.247848 -3.10698 3.62403
RightShoulder  14.6338 30.1457 37.0725
RightArm  -1.85167 25.6558 15.9287
RightForeArm  20.6339 38.3511 7.58272
RightHand  -0.445403 3.6374 -5.95394
LeftUpLeg  -28.1387 12.891 -9.0836
LeftLeg  29.755 6.60516 4.42312
LeftFoot  -1.96174 -0.502039 6.25785
LeftToes  3.18074e-010 1.39432e-010 -7.71186e-011
226
root  17.3784 37.0076 34.3158 176.774 23.9922 176.214
RightUpLeg  -9.875 -11.6379 -12.709
RightLeg  68.3723 -2.19655 -6.85041
RightFoot  6.83891 -1.59552 10.2418
RightToes  6.35937e-011 1.2921e-014 -6.02303e-014
Spine  10.4064 2.23268 -4.06619
Spine1  -0.0862894 2.53336 -5.07502
HEad  -0.0925847 0.710941 0.0715778
LeftShoulder1  1.94669 -2.71504 -25.1237
LeftArm  22.9631 -51.4743 -49.969
LeftForeArm  9.71946 -27.246 -5.34889
LeftHand  -0.23752 -3.13174 3.4743
RightShoulder  15.0234 31.2059 36.8313
RightArm  -0.424803 26.193 16.4029
RightForeArm  20.1994 37.9224 7.48489
RightHand  -0.435228 3.32426 -6.03711
LeftUpLeg  -28.0698 13.5002 -9.66816
LeftLeg  33.5839 5.91191 4.5855
LeftFoot  -5.34747 -0.257008 5.52096
LeftToes  3.18074e-010 1.39432e-010 -7.71186e-011
227
root  17.9406 37.0172 33.2733 176.523 23.0441 175.969
RightUpLeg  -15.8661 -11.5993 -12.3524
RightLeg  72.1731 -1.33131 -5.59956
RightFoot  3.22539 -1.4832 11.7405
RightToes  6.35937e-011 1.2921e-014 -6.02303e-014
Spine  11.4232 1.92912 -4.63077
Spine1  -0.0496099 2.20709 -5.55206
HEad  -1.13989 0.678562 -0.118841
LeftShoulder1  1.9886 -2.86503 -25.0423
LeftArm  23.7565 -52.5665 -50.7637
LeftForeArm  9.44254 -26.9164 -5.28833
LeftHand  -0.232141 -3.2336 3.36775
RightShoulder  15.1473 31.8989 36.3192
RightArm  0.563454 26.7743 16.7329
RightForeArm  20.0716 37.5244 7.37799
RightHand  -0.431714 3.29218 -6.01036
LeftUpLeg  -26.6181 12.7979 -9.33729
LeftLeg  35.471 5.5316 4.60881
LeftFoot  -7.95869 -0.0821599 4.4038
LeftToes  3.18074e-010 1.39432e-010 -7.71186e-011
228
root  18.5153 37.1672 32.1914 176.711 21.5258 176.025
RightUpLeg  -21.1498 -12.3349 -11.4529
RightLeg  71.1123 -1.41891 -5.5118
RightFoot  0.70982 -1.37481 13.0189
RightToes  6.35937e-011 1.2921e-014 -6.02303e-014
Spine  11.6564 1.49417 -4.87716
Spine1  0.327698 1.81617 -5.48243
HEad  -1.93027 0.41657 -0.49981
LeftShoulder1  2.06242 -3.10662 -25.0186
LeftArm  24.8701 -53.8846 -52.3291
LeftForeArm  9.06401 -26.4536 -5.20339
LeftHand  -0.229038 -3.23577 3.32523
RightShoulder  14.9568 32.1994 35.4336
RightArm  0.923742 27.0499 16.9185
RightForeArm  19.8562 37.7518 7.45695
RightHand  -0.409225 3.25186 -5.7341
LeftUpLeg  -24.689 12.0979 -8.81412
LeftLeg  35.918 4.75621 4.0845
LeftFoot  -10.0636 0.0209875 3.54591
LeftToes  3.18074e-010 1.39432e-010 -7.71186e-011
229
root  19.1019 37.4275 31.1027 177.186 19.6512 176.484
RightUpLeg  -25.171 -13.1347 -10.1545
RightLeg  65.4632 -2.09676 -5.65216
RightFoot  -1.25266 -1.20811 13.5311
RightToes  6.35937e-011 1.2921e-014 -6.02303e-014
Spine  12.185 0.947547 -4.65938
Spine1  -0.415277 1.27577 -4.92562
HEad  -2.12361 0.126276 -0.723544
LeftShoulder1  2.08444 -3.28808 -24.4869
LeftArm  25.7291 -54.6585 -54.6194
LeftForeArm  9.00898 -26.098 -5.12601
LeftHand  -0.223989 -3.28167 3.24308
RightShoulder  14.6893 32.1584 34.7461
RightArm  0.974887 26.8446 16.9749
RightForeArm  20.0147 38.6574 7.71232
RightHand  -0.389436 3.22986 -5.48112
LeftUpLeg  -22.3699 12.3322 -7.87158
LeftLeg  35.2557 2.8825 2.57772
LeftFoot  -11.6462 0.0785905 3.22439
LeftToes  3.18074e-010 1.39432e-010 -7.71186e-011
230
root  19.687 37.735 30.0282 177.643 17.5428 177.014
RightUpLeg  -27.53 -13.5473 -9.26692
RightLeg  56.2547 -2.91916 -5.12355
RightFoot  -2.48624 -1.05559 13.3566
RightToes  6.35937e-011 1.2921e-014 -6.02303e-014
Spine  12.5096 0.380426 -4.20585
Spine1  -1.00246 0.698818 -4.14222
HEad  -1.94498 -0.0808634 -0.924831
LeftShoulder1  2.05558 -3.36138 -23.7016
LeftArm  26.2748 -55.4515 -57.0625
LeftForeArm  9.66492 -26.1474 -5.10196
LeftHand  -0.214934 -3.38149 3.09295
RightShoulder  14.3062 31.9049 33.98
RightArm  0.49846 26.778 16.6778
RightForeArm  20.6484 39.7128 7.98998
RightHand  -0.378085 3.27853 -5.30182
LeftUpLeg  -19.7734 12.029 -6.71253
LeftLeg  33.9544 1.29755 1.32107
LeftFoot  -12.7252 0.108099 2.61987
LeftToes  3.18074e-010 1.39432e-010 -7.71186e-011
231
root  20.2998 38.0022 28.9781 178.009 15.304 177.189
RightUpLeg  -28.4959 -13.5355 -9.31882
RightLeg  44.8399 -4.46617 -5.04454
RightFoot  -3.21482 -1.02805 14.0959
RightToes  6.35937e-011 1.2921e-014 -6.02303e-014
Spine  12.5945 -0.0904858 -4.17469
Spine1  -1.49022 0.162782 -3.35843
HEad  -1.73402 -0.428871 -1.05632
LeftShoulder1  2.01559 -3.36902 -23.0532
LeftArm  26.2694 -56.1476 -59.1678
LeftForeArm  11.1785 -27.0104 -5.21579
LeftHand  -0.214752 -3.31879 3.15445
RightShoulder  13.8868 31.6429 33.1057
RightArm  -1.10857 26.6162 16.035
RightForeArm  21.391 40.9252 8.31963
RightHand  -0.348503 3.23122 -4.92978
LeftUpLeg  -17.1988 10.2776 -5.81564
LeftLeg  32.4631 0.625101 0.802731
LeftFoot  -13.6589 0.11111 1.43875
LeftToes  3.18074e-010 1.39432e-010 -7.71186e-011
232
root  20.949 38.132 27.9253 178.417 12.9158 177.225
RightUpLeg  -28.8807 -13.1754 -10.4029
RightLeg  33.9798 -4.72028 -3.66023
RightFoot  -4.04366 -0.989904 15.0086
RightToes  6.35937e-011 1.2921e-014 -6.02303e-014
Spine  12.5138 -0.398596 -4.10607
Spine1  -1.89147 -0.241133 -2.4892
HEad  -1.67454 -1.10993 -1.34142
LeftShoulder1  1.98004 -3.37275 -22.4898
LeftArm  25.7081 -56.7889 -61.1401
LeftForeArm  13.6244 -28.622 -5.45417
LeftHand  -0.221025 -3.36596 3.16786
RightShoulder  13.346 31.1664 32.1103
RightArm  -3.94605 26.5026 15.0016
RightForeArm  21.8508 42.1319 8.67981
RightHand  -0.336316 3.12154 -4.81966
LeftUpLeg  -15.176 8.59001 -5.01769
LeftLeg  31.7534 -0.129207 0.282254
LeftFoot  -14.9647 0.111476 0.685243
LeftToes  3.18074e-010 1.39432e-010 -7.71186e-011
233
root  21.6501 38.1365 26.8836 178.603 10.2325 177.007
RightUpLeg  -29.0062 -12.0158 -12.7657
RightLeg  25.3295 -4.20126 -2.38478
RightFoot  -4.30126 -0.945144 14.8091
RightToes  6.35937e-011 1.2921e-014 -6.02303e-014
Spine  12.5522 -0.578542 -4.05681
Spine1  -2.19986 -0.478779 -1.97713
HEad  -1.62275 -2.15058 -1.60735
LeftShoulder1  1.95121 -3.35136 -22.139
LeftArm  24.919 -57.3835 -63.3278
LeftForeArm  16.6938 -30.8235 -5.80803
LeftHand  -0.223228 -3.36717 3.20714
RightShoulder  12.7433 30.3791 31.2533
RightArm  -7.69376 26.3896 13.3606
RightForeArm  21.5831 43.5235 9.16934
RightHand  -0.328152 2.9315 -4.80246
LeftUpLeg  -13.3598 6.31854 -4.36327
LeftLeg  31.7053 -0.67772 -0.0857372
LeftFoot  -16.6741 0.0904996 -0.204381
LeftToes  3.18074e-010 1.39432e-010 -7.71186e-011
234
root  22.4178 38.0428 25.8068 178.706 7.18495 176.766
RightUpLeg  -28.5377 -10.3207 -16.0577
RightLeg  18.7198 -4.69749 -1.97916
RightFoot  -4.36754 -0.899765 14.2079
RightToes  6.35937e-011 1.2921e-014 -6.02303e-014
Spine  12.3762 -0.634401 -3.89598
Spine1  -2.23254 -0.56968 -1.58273
HEad  -1.53181 -3.49109 -1.70319
LeftShoulder1  1.94354 -3.36203 -21.9737
LeftArm  24.2425 -57.4423 -65.8539
LeftForeArm  20.3208 -33.9841 -6.39376
LeftHand  -0.215379 -3.23929 3.14008
RightShoulder  12.078 29.315 30.4774
RightArm  -11.6589 26.1303 11.1615
RightForeArm  21.0342 44.8164 9.6683
RightHand  -0.31808 2.73334 -4.76142
LeftUpLeg  -11.7599 4.06332 -3.5818
LeftLeg  32.2632 -1.56905 -0.702462
LeftFoot  -18.6568 0.0451259 -1.04444
LeftToes  3.18074e-010 1.39432e-010 -7.71186e-011
235
root  23.2499 37.8804 24.6719 178.792 3.62333 176.421
RightUpLeg  -27.3263 -9.45979 -19.385
RightLeg  13.5764 -4.8288 -2.22356
RightFoot  -5.05908 -0.785868 13.6296
RightToes  6.35937e-011 1.2921e-014 -6.02303e-014
Spine  12.0632 -0.769337 -3.73037
Spine1  -2.27127 -0.73076 -1.32977
HEad  -1.49166 -4.8971 -1.82514
LeftShoulder1  1.95095 -3.38951 -21.9681
LeftArm  23.2394 -56.2326 -67.7484
LeftForeArm  24.6564 -39.1988 -7.57631
LeftHand  -0.193844 -3.1576 2.8714
RightShoulder  11.26 27.8323 29.6472
RightArm  -14.9802 26.079 9.54249
RightForeArm  20.6778 45.6292 9.99573
RightHand  -0.289429 2.57184 -4.42834
LeftUpLeg  -10.231 1.12654 -2.80474
LeftLeg  32.969 -2.36094 -1.28398
LeftFoot  -20.6763 -0.0285411 -1.86855
LeftToes  3.18074e-010 1.39432e-010 -7.71186e-011
236
root  24.1872 37.7041 23.4582 178.809 -0.30203 176.264
RightUpLeg  -25.614 -10.4176 -21.2823
RightLeg  10.5522 -3.04222 -3.2368
RightFoot  -6.46564 -0.57285 12.3727
RightToes  6.35937e-011 1.2921e-014 -6.02303e-014
Spine  11.7498 -0.811652 -3.5837
Spine1  -2.22698 -0.877131 -0.725457
HEad  -1.39415 -6.31392 -1.89129
LeftShoulder1  1.95018 -3.33923 -22.1765
LeftArm  23.5524 -54.2225 -69.9078
LeftForeArm  28.9292 -45.2435 -9.26267
LeftHand  -0.179981 -2.90557 2.74606
RightShoulder  10.46 26.4936 28.6049
RightArm  -17.2144 25.8625 8.18969
RightForeArm  19.4519 46.2536 10.3241
RightHand  -0.247906 2.4203 -3.8854
LeftUpLeg  -8.51852 -2.16689 -1.59894
LeftLeg  33.4561 -3.22052 -1.92564
LeftFoot  -22.632 -0.139503 -2.78472
LeftToes  3.18074e-010 1.39432e-010 -7.71186e-011
